# This file uses centimeters as units for non-parametric coordinates.

mtllib Falling_Leaf.mtl
g default
v 0.129042 2.000802 0.249460
v 0.130331 2.000802 0.215183
v 0.125958 2.000802 0.182388
v 0.114246 2.000802 0.153691
v 0.097620 2.000802 0.136229
v 0.138719 2.000802 -0.013011
v 0.117768 2.000802 0.281242
v 0.125445 2.000802 -0.012671
v 0.074641 1.986424 0.338237
v 0.033740 1.971381 0.372079
v -0.004611 2.000802 0.164831
v -0.070456 2.000802 0.211787
v -0.117875 1.935371 0.464011
v -0.099178 1.986424 0.248513
v -0.121455 1.948909 0.407038
v -0.123308 1.971381 0.312438
v 0.077728 2.000802 0.133202
v 0.091341 1.996298 0.116723
v 0.099056 1.996298 0.117200
v 0.087674 1.992894 0.134715
v 0.077826 2.002401 0.133301
v 0.087637 2.004481 0.134722
v 0.097505 2.002400 0.136194
v 0.099052 1.997906 0.117263
v 0.138715 2.002409 -0.012947
v -0.066878 1.951431 0.432165
v -0.004511 2.002402 0.164898
v -0.070456 2.002411 0.211787
v -0.099178 1.988032 0.248513
v 0.033740 1.972989 0.372079
v 0.074641 1.988032 0.338237
v 0.117768 2.002411 0.281242
v 0.129042 2.002411 0.249460
vt 0.939972 0.318587
vt 0.742602 0.316831
vt 0.708402 0.316613
vt 0.714341 0.304307
vt 0.720337 0.291502
vt 0.746531 0.305612
vt 0.941202 0.300042
vt 0.830050 0.086739
vt 0.835940 0.054468
vt 0.862291 0.077193
vt 0.913986 0.119223
vt 0.934526 0.142243
vt 0.954706 0.177660
vt 0.958615 0.196105
vt 0.956846 0.215224
vt 0.951997 0.233076
vt 0.943388 0.248117
vt 0.933023 0.256873
vt 0.927327 0.257067
vt 0.921675 0.256717
vt 0.878365 0.233141
vt 0.845035 0.202547
vt 0.831472 0.178878
vt 0.822515 0.140589
vt 0.943310 0.337472
vt 0.746216 0.327806
vt 0.728041 0.346386
vt 0.718098 0.332754
vt 0.709019 0.318673
vt 0.784111 0.184284
vt 0.779729 0.237883
vt 0.777744 0.245536
vt 0.772906 0.251803
vt 0.757989 0.252141
vt 0.738841 0.250557
vt 0.719507 0.243843
vt 0.701435 0.233671
vt 0.687130 0.218807
vt 0.667804 0.178298
vt 0.660174 0.145088
vt 0.649110 0.035991
vt 0.682303 0.049727
vt 0.736792 0.076001
vt 0.764181 0.108798
vt 0.777931 0.135194
vt 0.721696 0.289669
vt 0.747171 0.303340
vt 0.942359 0.298020
vt 0.772986 0.252781
vt 0.778904 0.135039
vt 0.785091 0.184287
vt 0.765113 0.108477
vt 0.659261 0.145467
vt 0.650601 0.073959
vt 0.666977 0.178831
vt 0.686367 0.219438
vt 0.700824 0.234440
vt 0.780708 0.237962
vn -0.128899 0.989340 -0.067757
vn -0.128899 0.989340 -0.067757
vn -0.070140 0.986451 0.148310
vn -0.071197 0.986925 0.144600
vn -0.070506 0.986616 0.147027
vn -0.128899 0.989340 -0.067757
vn -0.128899 0.989340 -0.067757
vn -0.069301 0.986063 0.151255
vn -0.069301 0.986063 0.151255
vn -0.069301 0.986063 0.151255
vn -0.069301 0.986063 0.151255
vn -0.069301 0.986063 0.151255
vn -0.069301 0.986063 0.151255
vn -0.069301 0.986063 0.151255
vn -0.069301 0.986063 0.151255
vn -0.069301 0.986063 0.151255
vn -0.069301 0.986063 0.151255
vn -0.069301 0.986063 0.151255
vn -0.069301 0.986063 0.151255
vn -0.069301 0.986063 0.151255
vn -0.069301 0.986063 0.151255
vn 0.002701 -0.999226 -0.039248
vn 0.002701 -0.999226 -0.039248
vn 0.002701 -0.999226 -0.039248
vn 0.063463 -0.986557 -0.150592
vn 0.062746 -0.986802 -0.149283
vn 0.063784 -0.986446 -0.151180
vn 0.002701 -0.999226 -0.039248
vn 0.064623 -0.986156 -0.152713
vn 0.064623 -0.986156 -0.152713
vn 0.064623 -0.986155 -0.152713
vn 0.064623 -0.986156 -0.152713
vn 0.064623 -0.986155 -0.152713
vn 0.064623 -0.986155 -0.152713
vn 0.064623 -0.986155 -0.152713
vn 0.064623 -0.986155 -0.152713
vn 0.064623 -0.986155 -0.152713
vn 0.064623 -0.986155 -0.152713
vn 0.064623 -0.986156 -0.152713
vn 0.064623 -0.986155 -0.152713
vn 0.064623 -0.986155 -0.152713
vn -0.756419 0.086164 -0.648387
vn -0.756419 0.086164 -0.648387
vn -0.756419 0.086164 -0.648387
vn 0.996906 0.036235 0.069760
vn 0.963134 -0.004231 0.268990
vn 0.965384 -0.002528 0.260820
vn 0.996906 0.036235 0.069760
vn 0.956653 -0.008857 0.291096
vn 0.956653 -0.008857 0.291096
vn -0.025539 0.039123 -0.998908
vn -0.025539 0.039123 -0.998908
vn -0.025539 0.039123 -0.998908
vn 0.723744 0.036928 -0.689080
vn 0.723744 0.036928 -0.689080
vn 0.723744 0.036928 -0.689080
vn -0.470134 0.053505 -0.880972
vn -0.671270 0.020994 -0.740916
vn -0.651928 0.024116 -0.757897
vn -0.465194 0.054286 -0.883543
vn -0.872712 0.000000 -0.488236
vn -0.847142 0.000000 -0.531367
vn -0.935566 0.000000 -0.353152
vn 0.482834 0.158665 0.861218
vn 0.503561 0.139444 0.852632
vn 0.516893 0.126795 0.846608
vn 0.482834 0.158665 0.861218
vn 0.722319 0.000000 0.691561
vn 0.745676 0.000000 0.666309
vn 0.848537 0.000000 0.529136
vn 0.857463 0.000000 0.514546
vn 0.971583 0.000000 0.236700
vn 0.971095 0.000000 0.238695
vn 0.999294 0.000000 0.037568
vn -0.357541 0.070354 -0.931244
vn -0.357541 0.070354 -0.931244
s 1
g polySurface3 pasted__polySurface713 group
usemtl pasted__lambert5SG
f 8/1/1 18/2/2 21/3/3 22/4/4 23/5/5 24/6/6 25/7/7
f 15/8/8 13/9/9 26/10/10 30/11/11 31/12/12 32/13/13 33/14/14 2/15/15 3/16/16 4/17/17 23/18/5 22/19/4 21/20/3 27/21/18 28/22/19 29/23/20 16/24/21
s 2
f 8/1/22 6/25/23 19/26/24 5/27/25 20/28/26 17/29/27 18/2/28
f 11/30/29 17/31/27 20/32/26 5/33/25 4/34/30 3/35/31 2/36/32 1/37/33 7/38/34 9/39/35 10/40/36 13/41/37 15/42/38 16/43/39 14/44/40 12/45/41
s off
f 18/2/42 17/29/43 21/3/44
s 3
f 5/46/45 19/47/46 24/6/47 23/5/48
f 19/47/46 6/48/49 25/7/50 24/6/47
s off
f 6/48/51 8/1/52 25/7/53
f 4/34/54 5/33/55 23/49/56
s 4
f 11/30/57 12/45/58 28/50/59 27/51/60
f 12/45/58 14/44/61 29/52/62 28/50/59
f 14/44/61 16/43/63 29/52/62
s 5
f 13/41/64 10/40/65 30/53/66 26/54/67
f 10/40/65 9/39/68 31/55/69 30/53/66
f 9/39/68 7/38/70 32/56/71 31/55/69
f 7/38/70 1/37/72 33/57/73 32/56/71
f 1/37/72 2/36/74 33/57/73
s 4
f 17/31/75 11/30/57 27/51/60 21/58/76
